<svg xmlns="http://www.w3.org/2000/svg" width="23" height="23"><path d="M4.839 15.78a7.774 7.774 0 0 0-.708.333 13.34 13.34 0 0 0-2.127-.42c.505.371 2.187 1.63 3.034 2.305 0 0 1.158.24 1.369.274a7.82 7.82 0 0 1 .73-.32 26.722 26.722 0 0 1-2.298-2.172ZM19.148 16.113a10.092 10.092 0 0 0-.692-.323 26.94 26.94 0 0 1-2.284 2.155l-.016.014c.274.107.519.211.716.313a73.433 73.433 0 0 0 1.371-.274 121.11 121.11 0 0 1 3.032-2.306c-.72.083-1.432.224-2.127.421ZM12.588 2.5h-1.932v-.023l.135-.643a.018.018 0 0 1 0-.011h.012c.27-.081.55-.123.832-.126.28.003.559.045.827.126h.014l.001.006-.001.005.138.643V2.5H12.588ZM.375 3.211c.02 1.544.567 9.816 1.222 11.195 1.094.452 2.338.946 2.338.946.181-.08.402-.165.63-.257v-.03c-.201-.542-1.446-5.972-1.33-13.68a7.457 7.457 0 0 0-1.608.244l-.514.69c-.23.31-.476.607-.738.892ZM18.707 15.09c.233.09.446.174.627.254 0 0 1.243-.494 2.34-.946.652-1.371 1.195-9.651 1.22-11.195-.313-.348-.532-.63-.73-.893l-.512-.69a7.477 7.477 0 0 0-1.608-.242c.119 7.659-1.118 13.069-1.325 13.668a.126.126 0 0 1-.012.043Z"/><path d="M16.717 1.252c-.291.016-1.12.065-1.407.108l-.499.611c-.281.347-.617.749-.804.958-.603-.03-2.402-.021-2.402-.021s-1.713 0-2.318.021c-.201-.21-.53-.611-.805-.958l-.496-.61c-.29-.044-1.118-.093-1.407-.109-.376 1.944-.616 7.455-.232 11.992 0 .057.07.535.141.958a.212.212 0 0 0 .014.05s2.684-1.135 5.157-1.135 5.152 1.136 5.152 1.136a.274.274 0 0 0 .015-.038c.07-.427.136-.936.14-.979.366-4.54.125-10.046-.249-11.984Zm-2.585 8.521a.06.06 0 0 1 0 .025.08.08 0 0 1-.014.022.1.1 0 0 1-.024.016H12.994l-.022-.016a.05.05 0 0 1-.014-.022.06.06 0 0 1 0-.025v-1.53a.068.068 0 0 0-.054-.069.064.064 0 0 0-.047 0 .074.074 0 0 0-.032.034l-.746 1.59-.014.036h-.83l-.016-.036-.744-1.59a.074.074 0 0 0-.032-.033.064.064 0 0 0-.047 0 .068.068 0 0 0-.04.025.056.056 0 0 0-.014.043V9.84l-1.122.88a.023.023 0 0 1-.016 0 .031.031 0 0 1-.018 0 .026.026 0 0 1-.014-.013.036.036 0 0 1 0-.015V6.089c0-.018.007-.035.02-.048a.07.07 0 0 1 .048-.019h1.466a.065.065 0 0 1 .062.04l.829 1.748c.006.011.015.02.026.028a.076.076 0 0 0 .036 0 .085.085 0 0 0 .038 0 .077.077 0 0 0 .024-.028l.829-1.749a.094.094 0 0 1 .026-.03.084.084 0 0 1 .038 0h1.463a.07.07 0 0 1 .05.02.067.067 0 0 1 .02.047l-.015 3.675Z"/><path d="M11.604 13.886c-1.502 0-3.446.564-5.077 1.176.055.103 1.02 1.868 1.62 2.699l.01.013c.532-.196 1.963-.699 1.963-.699h.078l.521 5.694v.016l.01.012c.062.043.328.195.909.195.315.023.63-.045.906-.195l.012.002a.035.035 0 0 0 0-.016l.511-5.694h.093s1.441.519 1.99.707l.026-.04c.603-.83 1.53-2.546 1.578-2.646-1.67-.63-3.635-1.224-5.15-1.224Zm1.483 2.335a1.954 1.954 0 0 0-.657-.465 2 2 0 0 0-1.589 0c-.25.109-.473.267-.657.465 0-.176-.022-.353-.034-.529.183-.209.411-.377.667-.492a1.996 1.996 0 0 1 1.635 0c.257.115.484.283.667.492l-.032.53Z"/></svg>