<svg xmlns="http://www.w3.org/2000/svg" viewBox="0 0 995.18 111.11"><defs><style>.cls-1{fill:#cb3b3b}</style></defs><g id="Layer_2" data-name="Layer 2"><g id="Calque_1" data-name="Calque 1"><path d="m219.55 17.24-14.41 31.21a1.21 1.21 0 0 1-2.2 0l-14.41-31.21a1.2 1.2 0 0 0-1.1-.71H162a1.22 1.22 0 0 0-1.21 1.22v83.06a7.21 7.21 0 0 0 3-1 39.79 39.79 0 0 0 4.2-2.65q2.25-1.6 4.54-3.58t4.21-3.76a36.14 36.14 0 0 0 3.12-3.27 5.75 5.75 0 0 0 1.32-2.1h.1V55.93a1.22 1.22 0 0 1 2.32-.51l12.94 28.37.28.61h14.46l.28-.61 12.94-28.37a1.22 1.22 0 0 1 2.32.51v27.26A1.21 1.21 0 0 0 228 84.4h18.1a1.21 1.21 0 0 0 1.21-1.21V17.75a1.22 1.22 0 0 0-1.21-1.22h-25.45a1.22 1.22 0 0 0-1.1.71ZM325.87 83.79l-25.56-66.48a1.21 1.21 0 0 0-1.13-.78h-32.53a1.22 1.22 0 0 0-1.15 1.62 17 17 0 0 0 1.13 2.39q1.23 2.16 2.59 4.2c.92 1.36 1.73 2.51 2.45 3.46s1.14 1.54 1.27 1.78l-20.68 53.81-.24.61h21.6l.24-.61 2.59-6.79a1.22 1.22 0 0 1 1.13-.77h23a1.22 1.22 0 0 1 1.14.77l2.59 6.76.23.61h21.6Zm-41.87-27 4.78-12.62a.34.34 0 0 1 .64 0l4.69 12.62a.34.34 0 0 1-.32.46h-9.47a.34.34 0 0 1-.32-.46ZM377.12 17.75v28.59a1.21 1.21 0 0 1-2.17.75L351.29 17a1.22 1.22 0 0 0-1-.47H332a1.22 1.22 0 0 0-1.22 1.22v64.82a1.22 1.22 0 0 0 1.22 1.22h18.1a1.22 1.22 0 0 0 1.22-1.22v-28a1.22 1.22 0 0 1 2.17-.75l23.44 29.94.48.61h19a1.21 1.21 0 0 0 1.21-1.21V17.75a1.22 1.22 0 0 0-1.21-1.22h-18.1a1.22 1.22 0 0 0-1.19 1.22ZM474.8 25.23a22.37 22.37 0 0 0-1.91-4.13 15.12 15.12 0 0 0-2.54-3.27 4 4 0 0 0-2.64-1.3h-66.94a14.57 14.57 0 0 0 1.56 3.83c.78 1.4 1.6 2.74 2.44 4s1.65 2.41 2.4 3.39 1.22 1.65 1.41 2v53.44a1.22 1.22 0 0 0 1.22 1.21h57.91a3.26 3.26 0 0 0 1.8-.61 7.16 7.16 0 0 0 .84-.68 15.2 15.2 0 0 0 2.54-3.28 22.46 22.46 0 0 0 1.91-4.07 11.64 11.64 0 0 0 .73-3.82V29a12 12 0 0 0-.73-3.77Zm-45.69 11.49a1.05 1.05 0 0 1 1.06-1.06h23.37c.33 0 .65.27 1 .8A3 3 0 0 1 455 38v24.93a3 3 0 0 1-.49 1.54c-.33.54-.65.8-1 .8h-23.34a1.05 1.05 0 0 1-1.06-1ZM552.3 83.79l-25.55-66.48a1.22 1.22 0 0 0-1.14-.78h-32.52a1.21 1.21 0 0 0-1.15 1.62 16 16 0 0 0 1.13 2.39q1.23 2.16 2.59 4.2c.91 1.36 1.73 2.51 2.45 3.46s1.14 1.54 1.27 1.78L478.7 83.79l-.24.61h21.6l.24-.61 2.59-6.79a1.22 1.22 0 0 1 1.13-.77h23a1.23 1.23 0 0 1 1.14.78l2.59 6.75.23.61h21.6Zm-41.9-27 4.78-12.62a.34.34 0 0 1 .64 0l4.69 12.62a.34.34 0 0 1-.32.46h-9.47a.34.34 0 0 1-.32-.46ZM542.57 17.75v16.7a1.22 1.22 0 0 0 1.22 1.21h20.83a1.21 1.21 0 0 1 1.21 1.21v45.7a1.22 1.22 0 0 0 1.17 1.22h18.1a1.22 1.22 0 0 0 1.22-1.22v-45.7a1.21 1.21 0 0 1 1.21-1.21h20.87a1.21 1.21 0 0 0 1.21-1.21v-16.7a1.22 1.22 0 0 0-1.21-1.22h-64.61a1.22 1.22 0 0 0-1.22 1.22ZM681.1 25.11a22.73 22.73 0 0 0-1.85-4.11 14.4 14.4 0 0 0-2.5-3.21 4 4 0 0 0-2.64-1.3h-51.5a4 4 0 0 0-2.64 1.3 14.38 14.38 0 0 0-2.49 3.21 22.09 22.09 0 0 0-1.86 4.07 12.24 12.24 0 0 0-.73 3.76v43.23a12 12 0 0 0 .73 3.83 22.8 22.8 0 0 0 1.86 4 14.85 14.85 0 0 0 2.52 3.22 9.3 9.3 0 0 0 .84.68 3.26 3.26 0 0 0 1.8.61h51.5a3.21 3.21 0 0 0 1.8-.61 7.16 7.16 0 0 0 .84-.68 14.88 14.88 0 0 0 2.5-3.21 23.5 23.5 0 0 0 1.85-4 11.73 11.73 0 0 0 .74-3.83v-43.2a12 12 0 0 0-.77-3.76Zm-45.69 12.77a3.1 3.1 0 0 1 .44-1.42c.3-.53.61-.8.93-.8h23.16c.33 0 .64.25.93.74a2.81 2.81 0 0 1 .44 1.48v25.17a2.85 2.85 0 0 1-.44 1.49c-.29.49-.6.73-.93.73h-23.16a1.11 1.11 0 0 1-1-.73 3.09 3.09 0 0 1-.4-1.49ZM759 83.79l-15-17.9h1a15.55 15.55 0 0 0 5.91-1.17 8.22 8.22 0 0 0 3.57-3 12.63 12.63 0 0 0 1.71-4.94 48.06 48.06 0 0 0 .44-6.91v-21a12 12 0 0 0-.74-3.76A21.41 21.41 0 0 0 754 21a14.38 14.38 0 0 0-2.49-3.21 4 4 0 0 0-2.64-1.3h-58a1.22 1.22 0 0 0-1.22 1.22v64.86a1.22 1.22 0 0 0 1.22 1.22H709a1.22 1.22 0 0 0 1.22-1.22v-45.7a1.21 1.21 0 0 1 1.21-1.21h23.32c.32 0 .63.25.92.74a2.81 2.81 0 0 1 .44 1.48v7.9c0 1.48-.45 2.22-1.36 2.22h-18.64a1.21 1.21 0 0 0-1.21 1.21v9.35a4.53 4.53 0 0 0 1.1 2.92l18.8 22.31.52.61h24.14ZM802.5 17.11l-8.77 14.14a1.22 1.22 0 0 1-2.07 0L783 17.11a1.21 1.21 0 0 0-1-.58h-20.62a1.22 1.22 0 0 0-1 1.91l21.83 31.72a1.2 1.2 0 0 1 .22.69v50a7.21 7.21 0 0 0 3-1 39.79 39.79 0 0 0 4.2-2.65q2.25-1.6 4.54-3.58c1.53-1.32 2.94-2.57 4.21-3.76a40.6 40.6 0 0 0 3.17-3.27A5.7 5.7 0 0 0 803 84.4V51a1.2 1.2 0 0 1 .22-.69l23.21-33.71h-22.9a1.21 1.21 0 0 0-1.03.51Z" class="cls-1"/><rect width="15.27" height="14.05" x="824.51" y="70.16" class="cls-1" rx="1.21" transform="rotate(-.12 845.032 77.28)"/><path d="M917.49 82.78a1.22 1.22 0 0 1-1.22 1.22h-59.18a5.36 5.36 0 0 1-.35-.3 12.34 12.34 0 0 1-2.1-2.75 21.93 21.93 0 0 1-1.73-3.78 9.66 9.66 0 0 1-.61-3.06L852.2 27a9.67 9.67 0 0 1 .61-3 20.58 20.58 0 0 1 1.71-3.82 12.68 12.68 0 0 1 2.08-2.76 2.66 2.66 0 0 1 .6-.46l58.94-.12a1.22 1.22 0 0 1 1.22 1.16v11.62a1.22 1.22 0 0 1-1.21 1.22l-43.81.09a4.49 4.49 0 0 0-4 2.68 6.68 6.68 0 0 0-.88 3.17l.06 27.5a6.83 6.83 0 0 0 .81 3.18 4.57 4.57 0 0 0 4.09 2.65h28.61a1.22 1.22 0 0 0 1.22-1.22V57.52h-.12v-.14h-17.94a1.22 1.22 0 0 1-1.19-1.17V44.72a1.21 1.21 0 0 1 1.21-1.21l32-.07a1.22 1.22 0 0 1 1.22 1.21ZM979.92 84v-.09L935 84a2.8 2.8 0 0 1-.6-.46 12.65 12.65 0 0 1-2.1-2.75 22.28 22.28 0 0 1-1.7-3.79 9.56 9.56 0 0 1-.6-3l-.1-47.16a10 10 0 0 1 .61-3 21.26 21.26 0 0 1 1.71-3.82 12.39 12.39 0 0 1 2.09-2.76 3 3 0 0 1 .59-.46l58.94-.12a1.22 1.22 0 0 1 1.22 1.21v11.62a1.22 1.22 0 0 1-1.21 1.22l-43.79.09a4.5 4.5 0 0 0-4 2.68 6.73 6.73 0 0 0-.88 3.17l.06 27.5a7.06 7.06 0 0 0 .81 3.19 4.58 4.58 0 0 0 4.1 2.64l28.68-.09a1.21 1.21 0 0 0 1.17-1.29V58.34a1.21 1.21 0 0 0-1.21-1.21h-16.88a1.21 1.21 0 0 1-1.21-1.21V44.56a1.21 1.21 0 0 1 1.21-1.21l32-.07a1.21 1.21 0 0 1 1.21 1.21l.08 38.29A1.22 1.22 0 0 1 994 84ZM22.21 74.22c-1.7.76-3 1.37-3.52 1.69a65.91 65.91 0 0 0-10.58-2.14c2.51 1.9 10.89 8.32 15.09 11.77 0 0 5.76 1.23 6.81 1.4a38.5 38.5 0 0 1 3.63-1.63 134.45 134.45 0 0 1-11.43-11.09ZM93.37 75.91c-.58-.31-1.77-.9-3.44-1.64a135.6 135.6 0 0 1-11.36 11 .27.27 0 0 0-.08.07c1.36.55 2.58 1.08 3.56 1.6 1-.17 6.81-1.4 6.81-1.4 4.19-3.45 12.57-9.87 15.09-11.77a65.69 65.69 0 0 0-10.58 2.14ZM60.76 6.42H51.15v-.06L51.79 3a.07.07 0 0 1 0-.06h.06a14.59 14.59 0 0 1 4.15-.7 14.44 14.44 0 0 1 4.11.64h.07a.07.07 0 0 1 0 .06l.69 3.28v.06a.29.29 0 0 1-.09.09ZM0 10.05c.1 7.88 2.82 50.11 6.08 57.15 5.44 2.31 11.63 4.8 11.63 4.8.9-.41 2-.84 3.13-1.31v-.15c-1-2.77-7.19-30.49-6.61-69.85A37.32 37.32 0 0 0 6.22 2L3.66 5.49A58.25 58.25 0 0 1 0 10.05ZM91.19 70.69c1.16.46 2.22.89 3.12 1.3 0 0 6.18-2.52 11.64-4.83 3.24-7 5.93-49.27 6.07-57.15a64.744 64.744 0 0 1-3.63-4.56l-2.55-3.53a37.51 37.51 0 0 0-8-1.24c.58 39.1-5.56 66.72-6.59 69.79a.66.66 0 0 1-.06.22Z" class="cls-1"/><path d="M81.28 0c-1.45.08-5.57.33-7 .55l-2.49 3.12c-1.4 1.77-3.08 3.82-4 4.89-3-.15-11.94-.11-11.94-.11s-8.52 0-11.53.11c-1-1.07-2.63-3.12-4-4.89L37.78.55c-1.44-.22-5.57-.47-7-.55-1.87 9.92-3.06 38.06-1.15 61.21 0 .3.35 2.74.69 4.9a2 2 0 0 0 .08.26s13.34-5.8 25.65-5.8 25.63 5.8 25.63 5.8a1.18 1.18 0 0 0 .07-.2c.34-2.17.68-4.77.7-5 1.89-23.11.68-51.23-1.17-61.17ZM68.42 43.49a.32.32 0 0 1 0 .14.41.41 0 0 1-.07.11.5.5 0 0 1-.12.08h-5.47l-.11-.08a.44.44 0 0 1-.08-.11.59.59 0 0 1 0-.14v-7.8a.48.48 0 0 0-.07-.23.37.37 0 0 0-.2-.12.31.31 0 0 0-.23 0 .27.27 0 0 0-.16.17l-3.71 8.12-.08.18H54l-.08-.18-3.7-8.12a.33.33 0 0 0-.16-.17.34.34 0 0 0-.24 0 .39.39 0 0 0-.19.12.4.4 0 0 0-.08.23v8.15L44 48.33a.19.19 0 0 1-.08 0 .15.15 0 0 1-.09 0 .13.13 0 0 1-.07-.06V24.74a.32.32 0 0 1 .11-.24.31.31 0 0 1 .24-.1h7.29a.37.37 0 0 1 .18.05.43.43 0 0 1 .13.14l4.12 8.93a.33.33 0 0 0 .31.2.35.35 0 0 0 .18 0 .37.37 0 0 0 .13-.15l4.12-8.93a.43.43 0 0 1 .13-.14.41.41 0 0 1 .19-.05h7.21a.34.34 0 0 1 .35.34Z" class="cls-1"/><path d="M55.86 64.54c-7.47 0-17.14 2.89-25.25 6.06.27.53 5.07 9.54 8.06 13.78v.07c2.64-1 9.76-3.57 9.76-3.57h.39L51.46 110v.14c.31.22 1.63 1 4.52 1a8 8 0 0 0 4.51-1l.06-.06a.19.19 0 0 0 0-.08l2.54-29.07h.41s7.17 2.64 9.89 3.61l.14-.2c3-4.24 7.61-13 7.85-13.51-8.21-3.25-17.98-6.29-25.52-6.29Zm7.37 11.93a9.71 9.71 0 0 0-14.43 0c0-.9-.11-1.8-.17-2.7a9.71 9.71 0 0 1 14.77 0c-.05.9-.11 1.8-.17 2.7Z" class="cls-1"/></g></g></svg>